<svg width="52" height="24" viewBox="0 0 52 24" fill="none" xmlns="http://www.w3.org/2000/svg">
<g clip-path="url(#clip0_109_502)">
<path d="M21 7.99999C20.5 7.99999 21.0352 8.00001 20.5 8C20 7.99999 19.7256 8.00556 19.38 8H7.13L6 3.74C5.9414 3.52184 5.81066 3.32994 5.62908 3.19557C5.44749 3.0612 5.22576 2.99227 5 3H3C2.73478 3 2.48043 3.10536 2.29289 3.29289C2.10536 3.48043 2 3.73478 2 4C2 4.26522 2.10536 4.51957 2.29289 4.70711C2.48043 4.89464 2.73478 5 3 5H4.24L7 15.26C7.0586 15.4782 7.18934 15.6701 7.37092 15.8044C7.55251 15.9388 7.77424 16.0077 8 16H17C17.1847 15.9994 17.3656 15.9478 17.5227 15.8507C17.6798 15.7536 17.8069 15.6149 17.89 15.45L21.17 8.89C21.3122 8.59201 21.5157 8.32978 21.5 7.99999C21.1374 8.0663 21.5 7.99999 21 7.99999ZM16.38 14H8.76L7.13 8H19.38L16.38 14Z" fill="white"/>
<path d="M7.5 21C8.32843 21 9 20.3284 9 19.5C9 18.6716 8.32843 18 7.5 18C6.67157 18 6 18.6716 6 19.5C6 20.3284 6.67157 21 7.5 21Z" fill="white"/>
<path d="M17.5 21C18.3284 21 19 20.3284 19 19.5C19 18.6716 18.3284 18 17.5 18C16.6716 18 16 18.6716 16 19.5C16 20.3284 16.6716 21 17.5 21Z" fill="white"/>
<path d="M9.868 10V8.74C11.156 7.43333 12.1033 6.43 12.71 5.73C13.3167 5.03 13.7367 4.46533 13.97 4.036C14.2033 3.60667 14.32 3.21 14.32 2.846C14.32 2.41667 14.194 2.08533 13.942 1.852C13.69 1.60933 13.3353 1.488 12.878 1.488C12.4767 1.488 12.038 1.58133 11.562 1.768C11.0953 1.94533 10.6193 2.202 10.134 2.538V1.166C11.03 0.437999 12.0193 0.0739993 13.102 0.0739993C13.69 0.0739993 14.2033 0.181333 14.642 0.395999C15.0807 0.601333 15.4213 0.899999 15.664 1.292C15.916 1.684 16.042 2.15067 16.042 2.692C16.042 3.21467 15.902 3.74667 15.622 4.288C15.3513 4.82 14.908 5.43133 14.292 6.122C13.6853 6.80333 12.8453 7.65267 11.772 8.67H16.476V10H9.868Z" fill="#FF9900"/>
</g>
<path d="M31.938 20.734C31.2007 21.0233 30.3607 21.168 29.418 21.168C27.8687 21.168 26.6973 20.7573 25.904 19.936C25.12 19.1147 24.728 17.9013 24.728 16.296C24.728 14.644 25.134 13.3747 25.946 12.488C26.7673 11.592 27.9433 11.144 29.474 11.144C30.314 11.144 31.0887 11.27 31.798 11.522V12.922C30.874 12.726 30.1507 12.628 29.628 12.628C28.5733 12.628 27.7893 12.9033 27.276 13.454C26.7627 14.0047 26.506 14.854 26.506 16.002V16.338C26.506 17.4767 26.758 18.3213 27.262 18.872C27.7753 19.4133 28.5547 19.684 29.6 19.684C30.188 19.684 30.9673 19.5673 31.938 19.334V20.734ZM37.5465 21L37.4205 20.314C37.0939 20.594 36.7299 20.8133 36.3285 20.972C35.9365 21.1307 35.5445 21.21 35.1525 21.21C34.4992 21.21 33.9672 21.014 33.5565 20.622C33.1552 20.23 32.9545 19.7213 32.9545 19.096C32.9545 18.4053 33.2019 17.8547 33.6965 17.444C34.2005 17.0333 34.8725 16.828 35.7125 16.828C36.2072 16.828 36.7485 16.898 37.3365 17.038V16.212C37.3365 15.736 37.2339 15.4047 37.0285 15.218C36.8232 15.0313 36.4639 14.938 35.9505 14.938C35.2225 14.938 34.3872 15.092 33.4445 15.4V14.238C33.7899 14.0607 34.2099 13.9207 34.7045 13.818C35.2085 13.7153 35.7125 13.664 36.2165 13.664C37.1312 13.664 37.8032 13.8507 38.2325 14.224C38.6712 14.5973 38.8905 15.1807 38.8905 15.974V21H37.5465ZM35.6145 20.034C35.8852 20.034 36.1699 19.978 36.4685 19.866C36.7672 19.7447 37.0565 19.5767 37.3365 19.362V18.018C36.8419 17.9153 36.4032 17.864 36.0205 17.864C35.0499 17.864 34.5645 18.242 34.5645 18.998C34.5645 19.3247 34.6579 19.5813 34.8445 19.768C35.0312 19.9453 35.2879 20.034 35.6145 20.034ZM40.8674 21V13.874H42.2394L42.4634 14.938C42.8367 14.5273 43.1867 14.238 43.5134 14.07C43.84 13.902 44.1947 13.818 44.5774 13.818C44.7547 13.818 44.946 13.832 45.1514 13.86V15.372C44.89 15.3253 44.624 15.302 44.3534 15.302C43.6627 15.302 43.0514 15.4793 42.5194 15.834V21H40.8674ZM50.8486 20.832C50.3633 21.0093 49.8406 21.098 49.2806 21.098C48.5433 21.098 47.9973 20.9253 47.6426 20.58C47.2879 20.2347 47.1106 19.7073 47.1106 18.998V15.134H45.9066V14.098L47.1666 13.916L47.4186 11.914H48.7626V13.874H50.7926V15.134H48.7626V18.914C48.7626 19.2313 48.8373 19.46 48.9866 19.6C49.1453 19.7307 49.4066 19.796 49.7706 19.796C50.1626 19.796 50.5219 19.7587 50.8486 19.684V20.832Z" fill="white"/>
<defs>
<clipPath id="clip0_109_502">
<rect width="24" height="24" fill="white"/>
</clipPath>
</defs>
</svg>
