<svg width="20" height="20" viewBox="0 0 20 20" fill="none" xmlns="http://www.w3.org/2000/svg">
<path d="M20 3.3335H0V16.6665H20V3.3335Z" fill="#F0F0F0"/>
<path d="M20 3.3335H0V7.77784H20V3.3335Z" fill="#FF9811"/>
<path d="M20 12.2222H0V16.6665H20V12.2222Z" fill="#6DA544"/>
<path d="M9.99996 11.7147C10.947 11.7147 11.7147 10.947 11.7147 10C11.7147 9.053 10.947 8.28531 9.99996 8.28531C9.05297 8.28531 8.28528 9.053 8.28528 10C8.28528 10.947 9.05297 11.7147 9.99996 11.7147Z" fill="#0052B4"/>
<path d="M9.99999 11.0717C10.5919 11.0717 11.0716 10.5919 11.0716 10C11.0716 9.40817 10.5919 8.92837 9.99999 8.92837C9.40814 8.92837 8.92834 9.40817 8.92834 10C8.92834 10.5919 9.40814 11.0717 9.99999 11.0717Z" fill="#F0F0F0"/>
<path d="M10 8.67758L10.3306 9.42738L11.1453 9.33879L10.6612 10L11.1453 10.6612L10.3306 10.5726L10 11.3224L9.66938 10.5726L8.85474 10.6612L9.3388 10L8.85474 9.33879L9.66938 9.42738L10 8.67758Z" fill="#0052B4"/>
</svg>
